<svg xmlns="http://www.w3.org/2000/svg" xmlns:xlink="http://www.w3.org/1999/xlink" viewBox="0 0 167.92 101.04"><defs><style>.cls-1{fill:url(#linear-gradient);}.cls-2{fill:url(#linear-gradient-2);}.cls-3{fill:url(#linear-gradient-3);}.cls-4{fill:#e73494;}.cls-5{fill:url(#linear-gradient-4);}.cls-6{fill:url(#linear-gradient-5);}.cls-7{fill:#8dd2c9;}.cls-8{fill:url(#linear-gradient-6);}.cls-9{fill:url(#linear-gradient-7);}.cls-10{fill:#da1c5c;}</style><linearGradient id="linear-gradient" x1="148.98" y1="48.74" x2="167.92" y2="48.74" gradientUnits="userSpaceOnUse"><stop offset="0" stop-color="#2ebce7"/><stop offset="1" stop-color="#2abce8"/></linearGradient><linearGradient id="linear-gradient-2" x1="148.63" y1="39.3" x2="167.92" y2="39.3" xlink:href="#linear-gradient"/><linearGradient id="linear-gradient-3" x1="146.68" y1="63.14" x2="150.79" y2="63.14" xlink:href="#linear-gradient"/><linearGradient id="linear-gradient-4" x1="87.56" y1="73.07" x2="151.22" y2="73.07" gradientUnits="userSpaceOnUse"><stop offset="0.01" stop-color="#8dd2c9"/><stop offset="1" stop-color="#00b9e9"/></linearGradient><linearGradient id="linear-gradient-5" x1="89.82" y1="65.69" x2="148.98" y2="65.69" xlink:href="#linear-gradient-4"/><linearGradient id="linear-gradient-6" x1="27.7" y1="58.2" x2="85.55" y2="58.2" gradientUnits="userSpaceOnUse"><stop offset="0.01" stop-color="#da1c5c"/><stop offset="1" stop-color="#e73494"/></linearGradient><linearGradient id="linear-gradient-7" x1="24.92" y1="64.28" x2="87.56" y2="64.28" xlink:href="#linear-gradient-6"/></defs><g id="Layer_2" data-name="Layer 2"><g id="Layer_1-2" data-name="Layer 1"><path class="cls-1" d="M167.92,33.79c-4.93,14-10.56,28.08-16.7,39.69l-.24-.12c-.65-1.86-1.32-3.73-2-5.58.61-1.07,1.21-2.17,1.81-3.29C157.1,52.73,162.87,38.35,167.92,24Z"/><path class="cls-2" d="M167.92,24c-5,14.35-10.82,28.73-17.13,40.49-.7-2-1.42-4-2.16-6,.61-1.06,1.21-2.15,1.81-3.26,6.45-11.87,12.34-26.52,17.48-41.13Z"/><path class="cls-3" d="M148.63,58.49c.74,2,1.46,4,2.16,6-.6,1.12-1.2,2.22-1.81,3.29q-1.12-3-2.3-6.05C147.34,60.68,148,59.6,148.63,58.49Z"/><path class="cls-4" d="M88.27,32C95.36,16.08,102.09.49,112.7,0c14.45-.64,27.74,27.11,37.74,55.22-.6,1.11-1.2,2.2-1.81,3.26C138.86,32.18,126.29,7.67,112.7,8.27,103,8.71,96.6,21.66,90.17,36,89.55,34.61,88.92,33.27,88.27,32Z"/><path class="cls-5" d="M89.82,45.1c9.94,21.26,18.29,45.49,32.73,46.14,9.36.42,18.3-9.21,26.43-23.46.68,1.85,1.35,3.72,2,5.58l.24.12c-8.71,16.47-18.44,28-28.67,27.55-15.52-.7-24-28.65-35-50.87C88.31,48.47,89.07,46.77,89.82,45.1Z"/><path class="cls-4" d="M112.7,16.63c-8.71.39-14.8,11-20.62,23.5-.63-1.4-1.26-2.79-1.91-4.17C96.6,21.66,103,8.71,112.7,8.27c13.59-.6,26.16,23.91,35.93,50.22-.65,1.11-1.29,2.19-1.95,3.24C137.22,37.45,125.41,16.06,112.7,16.63Z"/><path class="cls-6" d="M122.55,91.24c-14.44-.65-22.79-24.88-32.73-46.14q1.13-2.52,2.26-5c9,19.91,17.14,40.61,30.47,41.21,8.49.38,16.63-7.5,24.13-19.61q1.17,3,2.3,6.05C140.85,82,131.91,91.66,122.55,91.24Z"/><path class="cls-7" d="M89.82,45.1c-.63-1.36-1.27-2.71-1.92-4Q89,38.5,90.17,36c.65,1.38,1.28,2.77,1.91,4.17Q90.94,42.58,89.82,45.1Z"/><path class="cls-7" d="M90.17,36Q89,38.49,87.9,41.06c-.65-1.33-1.31-2.64-2-3.92Q87.1,34.56,88.27,32C88.92,33.27,89.55,34.61,90.17,36Z"/><path class="cls-7" d="M87.9,41.06c.65,1.33,1.29,2.68,1.92,4-.75,1.67-1.51,3.37-2.26,5.06-.66-1.34-1.33-2.65-2-3.94C86.34,44.51,87.12,42.78,87.9,41.06Z"/><path class="cls-7" d="M85.92,37.14c.67,1.28,1.33,2.59,2,3.92-.78,1.72-1.56,3.45-2.35,5.16-.69-1.31-1.39-2.58-2.11-3.82C84.28,40.68,85.11,38.91,85.92,37.14Z"/><path class="cls-8" d="M85.55,46.22C79.18,60,72.11,72.54,61.46,73.88c-8.15,1-19.13-4.41-33.76-27.1,1-1.35,2-2.64,2.93-3.85,13.18,19,23.23,23.65,30.83,22.69,9.49-1.2,16.14-11.29,22-23.22C84.16,43.64,84.86,44.91,85.55,46.22Z"/><path class="cls-9" d="M27.7,46.78c14.63,22.69,25.61,28.13,33.76,27.1C72.11,72.54,79.18,60,85.55,46.22c.68,1.29,1.35,2.6,2,3.94-6.92,15.39-14.32,30.59-26.1,32.07C52.8,83.32,41,77.12,24.92,50.69,25.86,49.33,26.78,48,27.7,46.78Z"/><path class="cls-7" d="M27.18,37.7c14.69-20.28,26-25.31,34.63-24.22C72,14.76,79.46,24.74,85.92,37.14c-.81,1.77-1.64,3.54-2.48,5.26-5.89-10.23-12.7-18-21.63-19.13-7.94-1-18.15,3.18-31.18,19.66C29.5,41.29,28.35,39.56,27.18,37.7Z"/><path class="cls-7" d="M23.94,32.44C40.22,8.28,52.55,2.41,61.81,3.58,73.29,5,81.25,17.45,88.27,32q-1.17,2.61-2.35,5.19C79.46,24.74,72,14.76,61.81,13.48c-8.63-1.09-19.94,3.94-34.63,24.22Q25.58,35.21,23.94,32.44Z"/><path class="cls-10" d="M30.63,42.93c-1,1.21-1.94,2.5-2.93,3.85q-1.61-2.46-3.24-5.21c.92-1.35,1.82-2.64,2.72-3.87C28.35,39.56,29.5,41.29,30.63,42.93Z"/><path class="cls-10" d="M27.18,37.7c-.9,1.23-1.8,2.52-2.72,3.87q-1.52-2.51-3.07-5.25,1.29-2,2.55-3.88Q25.58,35.22,27.18,37.7Z"/><path class="cls-10" d="M27.7,46.78c-.92,1.24-1.84,2.55-2.78,3.91q-1.52-2.47-3.06-5.2,1.32-2,2.6-3.92Q26.1,44.32,27.7,46.78Z"/><path class="cls-7" d="M21.86,45.49q1.55,2.73,3.06,5.2C17.48,61.5,9.2,76.16,0,95.77V86C8,69,15.23,55.75,21.86,45.49Z"/><path class="cls-10" d="M23.94,32.44q-1.26,1.86-2.55,3.88c-3.8-6.72-7.82-14.53-12.08-23.61V4.45C14.53,15.57,19.39,24.81,23.94,32.44Z"/><path class="cls-10" d="M24.46,41.57q-1.28,1.88-2.6,3.92c-1-1.68-1.94-3.43-2.92-5.26.83-1.35,1.65-2.66,2.45-3.91Q23,39.07,24.46,41.57Z"/><path class="cls-10" d="M21.39,36.32c-.8,1.25-1.62,2.56-2.45,3.91-3.07-5.66-6.28-12-9.63-19.17V12.71C13.57,21.79,17.59,29.6,21.39,36.32Z"/><path class="cls-7" d="M18.94,40.23c1,1.83,2,3.58,2.92,5.26C15.23,55.75,8,69,0,86v-9.9A371.43,371.43,0,0,1,18.94,40.23Z"/></g></g></svg>